<?xml version="1.0" encoding="UTF-8"?>
<!-- Generator: Adobe Illustrator 28.1.0, SVG Export Plug-In . SVG Version: 6.00 Build 0)  -->
<svg version="1.1" id="RGB_Reverse" xmlns="http://www.w3.org/2000/svg" xmlns:xlink="http://www.w3.org/1999/xlink" x="0px" y="0px" viewBox="0 0 161.9 54.6" style="enable-background:new 0 0 161.9 54.6;" xml:space="preserve">
<style type="text/css">
	.st0{fill:#5A85D7;}
	.st1{fill:#FFFFFF;}
</style>
<g>
	<path class="st0" d="M89.4,19.9H92v3.8h-9.7v-3.8h2.6V6.1l-6.5,17.6h-3.2L68.4,6.1v13.8h2.8v3.8h-9.9v-3.8h2.6V3.8h-2.6V0h8.9   l6.4,16.7L83.1,0H92v3.8h-2.6V19.9z"/>
	<path class="st0" d="M119.8,30.2h-5.5v-3.8h3l1.2-2.9L113,9.8h-2.3V6h8.4v3.8h-1.7l3.2,8.7l3.4-8.7h-1.7V6h8.3v3.8h-2.2L119.8,30.2   z"/>
	<path class="st0" d="M155.5,9c0.8-1.6,2.4-2.6,3.7-3s2.4-0.3,2.7-0.3v4.2c-0.6,0-1.4,0-2.2,0.1s-1.6,0.5-2.3,1.2   c-1.3,1.1-1.5,2.6-1.5,4.2v4.5h2.3v3.8h-8.6v-3.8h2.3V9.8h-2.3V6h6L155.5,9L155.5,9z"/>
	<path class="st0" d="M65.6,47c0,2,1.3,3.6,3.5,3.6c2,0,3.5-1.2,3.5-3.3c0-2.4-2.2-3-4.1-3.5c-1.7-0.5-3.2-0.9-4.6-2   c-1.7-1.3-2.6-3.1-2.6-5.2c0-3.9,3.4-6.8,7.2-6.8c1.6,0,3.2,0.5,4.2,1.8v-1.3h3.5v6.4h-4.1c0-1.8-1.3-3.1-3.1-3.1   c-1.8,0-3.2,1.1-3.2,3c0,2.3,2.1,2.8,3.9,3.4c1.8,0.5,3.6,1,5.1,2.2s2.4,3,2.4,5c0,4.3-3.2,7.4-7.5,7.4c-1.8,0-3.4-0.6-4.5-2V54   h-3.6v-7H65.6z"/>
	<path class="st0" d="M78.7,45.1c0-5.2,4.2-9.3,9.4-9.3c5.1,0,9.2,4.3,9.2,9.3c0,5.2-4.1,9.4-9.3,9.4C82.8,54.5,78.7,50.2,78.7,45.1   z M93.3,45.2c0-2.9-2.3-5.4-5.2-5.4c-2.9,0-5.4,2.4-5.4,5.3c0,2.9,2.3,5.4,5.3,5.4C90.9,50.5,93.3,48.1,93.3,45.2z"/>
	<path class="st0" d="M115.5,50.3h2.3V54h-6v-2.2c-1.2,1.7-3.3,2.7-5.3,2.7c-1.9,0-3.7-0.8-4.9-2.3c-1.3-1.5-1.6-3.2-1.6-5.1v-7   h-2.3v-3.8h6.3v9.6c0,1.1,0,2.4,0.7,3.3c0.7,1,1.8,1.5,3,1.5c1.1,0,2.3-0.6,3-1.5c0.8-1.1,0.8-2.3,0.8-3.5V40h-2.3v-3.8h6.3V50.3z"/>
	<path class="st0" d="M121.6,40.1h-2.3v-3.8h6.3v2.5c1.1-2,3.1-2.9,5.2-2.9c1.9,0,3.8,0.8,5.1,2.2c1.5,1.6,1.5,3.2,1.5,5.2v6.9h2.3   V54h-8.6v-3.8h2.3v-5.7c0-1.1,0-2.2-0.7-3.2s-1.9-1.4-3.1-1.4c-1.2,0-2.5,0.5-3.2,1.5c-0.8,1-0.8,2.5-0.8,3.7v5.1h2.3V54h-8.6v-3.8   h2.3L121.6,40.1L121.6,40.1z"/>
	<path class="st0" d="M155.5,51.4c-1.3,2-3.5,2.9-5.8,2.9c-4.9,0-9-4.2-9-9.1s4-9.2,9-9.2c2.3,0,4.5,1.1,5.8,2.9v-4.8h-2.3v-3.8h6.4   v19.9h2.3V54h-6.3L155.5,51.4L155.5,51.4z M155.6,45.1c0-2.9-2.4-5.3-5.3-5.3c-3,0-5.4,2.4-5.4,5.4c0,2.9,2.4,5.3,5.3,5.3   C153.2,50.6,155.6,48.1,155.6,45.1z"/>
	<path class="st1" d="M0,0v11.5C2.7,7.3,5.7,3.5,9.1,0H0z"/>
	<path class="st1" d="M25.6,0h-7.1C11.1,5,4.8,11.4,0,19v18.3C3.9,21.4,13.2,8.1,25.6,0z"/>
	<path class="st1" d="M8.2,54.1c0-28.7,20.5-51.9,45.9-51.9V0C24.2,0,0,24.2,0,54.1l0,0H8.2L8.2,54.1z"/>
	<path class="st1" d="M18.4,54.1c0-22.7,16-41.1,35.7-41.1v-2.2c-24.2,0-43.9,19.4-43.9,43.2l0,0L18.4,54.1L18.4,54.1z"/>
	<path class="st1" d="M28.6,54.1c0-16.7,11.4-30.3,25.5-30.3v-2.2c-18.6,0-33.7,14.5-33.7,32.4l0,0L28.6,54.1L28.6,54.1z"/>
	<path class="st1" d="M38.8,54.1c0-10.7,6.8-19.5,15.3-19.5v-2.2c-13,0-23.5,9.7-23.5,21.6l0,0L38.8,54.1L38.8,54.1z"/>
	<path class="st1" d="M49,54.1c0-4.8,2.3-8.6,5.1-8.6v-2.2c-7.3,0-13.3,4.8-13.3,10.8l0,0H49L49,54.1z"/>
	<path class="st0" d="M110.7,14.9c0-2.5-0.7-4.8-2.5-6.6c-1.7-1.8-4.2-2.9-6.6-2.9c-5.3,0-9.2,4.2-9.2,9.5c0,5.2,4.2,9.3,9.3,9.3   c3.7,0,7-2.3,8.4-5.7h-4.2c-1,1.5-2.5,2.1-4.3,2.1c-2.5,0-4.8-1.8-5.3-4.3h14.3L110.7,14.9z M101.4,9.1c2.6,0,4.8,1.5,5.5,4H96.2   C96.8,10.8,99,9.1,101.4,9.1z"/>
	<path class="st0" d="M148.5,14.9c0-2.5-0.7-4.8-2.5-6.6c-1.7-1.8-4.2-2.9-6.6-2.9c-5.3,0-9.2,4.2-9.2,9.5c0,5.2,4.2,9.3,9.3,9.3   c3.7,0,7-2.3,8.4-5.7h-4.2c-1,1.5-2.5,2.1-4.3,2.1c-2.5,0-4.8-1.8-5.3-4.3h14.3L148.5,14.9z M139.2,9.1c2.6,0,4.8,1.5,5.5,4H134   C134.6,10.8,136.9,9.1,139.2,9.1z"/>
</g>
</svg>